# xmcd
#
# Track frame offsets:
#	150
#	17237
#	32707
#	50393
#	63839
#	84021
#	102471
#	120361
#	138449
#	156240
#	174167
#	191886
#	210683
#	228476
#	246466
#	260497
#	278740
#	296544
#	324350
#
# Disc length: 4722 seconds
#
# Revision: 0
# Processed by: cddbd v1.5.1PL0 Copyright (c) Steve Scherf et al.
# Submitted via: dBpowerAMP V4.0
#
DISCID=0a127013
DTITLE=Pikaso - Sudie
DYEAR=2004
DGENRE=Blues
TTITLE0=Sudie
TTITLE1=Is Meiles
TTITLE2=Pravirkes Ruduo
TTITLE3=Ramune
TTITLE4=Saule
TTITLE5=A-ja-ja-jai
TTITLE6=Baltas Laiskas
TTITLE7=Auksine Sirdele
TTITLE8=Neisduosiu Taves
TTITLE9=Noriu Buti Laisvas
TTITLE10=Jausmu Lietus
TTITLE11=Tyliai, Tyliai
TTITLE12=Per Marias (Andy Paul Remix)
TTITLE13=Europos Vidury
TTITLE14=Mano Lova
TTITLE15=Toliau Negu Toli
TTITLE16=Jis Tau Meluoja
TTITLE17=Asarele
TTITLE18=DATA
EXTD=
EXTT0=
EXTT1=
EXTT2=
EXTT3=
EXTT4=
EXTT5=
EXTT6=
EXTT7=
EXTT8=
EXTT9=
EXTT10=
EXTT11=
EXTT12=
EXTT13=
EXTT14=
EXTT15=
EXTT16=
EXTT17=
EXTT18=
PLAYORDER=
